<?xml version="1.0" encoding="UTF-8" standalone="no"?>
<!-- Created with Inkscape (http://www.inkscape.org/) -->

<svg
   xmlns:dc="http://purl.org/dc/elements/1.1/"
   xmlns:cc="http://creativecommons.org/ns#"
   xmlns:rdf="http://www.w3.org/1999/02/22-rdf-syntax-ns#"
   xmlns:svg="http://www.w3.org/2000/svg"
   xmlns="http://www.w3.org/2000/svg"
   xmlns:sodipodi="http://sodipodi.sourceforge.net/DTD/sodipodi-0.dtd"
   xmlns:inkscape="http://www.inkscape.org/namespaces/inkscape"
   width="544.21875mm"
   height="197.61459mm"
   viewBox="0 0 544.21875 197.61459"
   version="1.1"
   id="svg8"
   sodipodi:docname="straylightlogo.svg"
   inkscape:version="0.92.2 (5c3e80d, 2017-08-06)">
  <defs
     id="defs2" />
  <sodipodi:namedview
     id="base"
     pagecolor="#ffffff"
     bordercolor="#666666"
     borderopacity="1.0"
     inkscape:pageopacity="0.0"
     inkscape:pageshadow="2"
     inkscape:zoom="0.49497475"
     inkscape:cx="1304.7867"
     inkscape:cy="501.56558"
     inkscape:document-units="mm"
     inkscape:current-layer="layer1"
     showgrid="false"
     inkscape:window-width="2560"
     inkscape:window-height="1016"
     inkscape:window-x="1920"
     inkscape:window-y="27"
     inkscape:window-maximized="1"
     fit-margin-top="0"
     fit-margin-left="0"
     fit-margin-right="0"
     fit-margin-bottom="0">
    <inkscape:grid
       type="xygrid"
       id="grid965"
       originx="116.66666"
       originy="-3.7187422" />
  </sodipodi:namedview>
  <metadata
     id="metadata5">
    <rdf:RDF>
      <cc:Work
         rdf:about="">
        <dc:format>image/svg+xml</dc:format>
        <dc:type
           rdf:resource="http://purl.org/dc/dcmitype/StillImage" />
        <dc:title></dc:title>
      </cc:Work>
    </rdf:RDF>
  </metadata>
  <g
     inkscape:label="Layer 1"
     inkscape:groupmode="layer"
     id="layer1"
     transform="translate(116.66666,-95.666664)">
    <rect
       style="opacity:1;fill:#ffffff;fill-opacity:1;fill-rule:nonzero;stroke:#000000;stroke-width:0.5;stroke-linecap:square;stroke-linejoin:miter;stroke-miterlimit:4;stroke-dasharray:none;stroke-dashoffset:0;stroke-opacity:1"
       id="rect1420"
       width="543.71875"
       height="197.11459"
       x="-116.41666"
       y="95.916664" />
    <path
       style="fill:none;fill-rule:evenodd;stroke:#000000;stroke-width:0.5;stroke-linecap:butt;stroke-linejoin:miter;stroke-miterlimit:4;stroke-dasharray:none;stroke-opacity:1"
       d="m -111.125,101.20833 v 22.48958 l 11.906255,-11.90625 h 13.229166 L -111.125,136.92708 v 11.90625 l 37.041671,-37.04167 h 6.614583 L -111.125,155.44791 v 31.75 l 75.406254,-75.40625 h 9.260416 l -29.104166,29.10417 h 41.010416 l -11.90625,11.90625 c 0,0 -5.291666,5.29167 -10.583333,5.29167 h -35.71875 l -9.260417,9.26041 h 55.5625 c 0,0 6.614583,0 14.552083,-7.9375 l 30.427084,-30.42708 h -46.302084 l 10.583334,-10.58333 c 0,0 6.614583,-6.61459 14.552083,-6.61459 h 47.625 l -55.5625,55.5625 31.749997,1e-5 9.260416,-9.26041 -18.52083,-1e-5 21.166664,-21.16667 H 51.59375 L 64.82292,123.69791 H 46.302087 l 11.90625,-11.90625 H 218.28125 l 10.58334,-10.58333 z"
       id="path967"
       inkscape:connector-curvature="0"
       sodipodi:nodetypes="cccccccccccccccscccscccsccccccccccccc" />
    <path
       style="fill:none;fill-rule:evenodd;stroke:#000000;stroke-width:0.5;stroke-linecap:butt;stroke-linejoin:miter;stroke-miterlimit:4;stroke-dasharray:none;stroke-opacity:1"
       d="M 43.656253,167.35416 H 30.427086 l 39.6875,-39.6875 c 0,0 3.96875,-3.96875 7.9375,-3.96875 H 103.1875 l -13.229167,13.22917 h -11.90625 c 0,0 -3.96875,0 -6.614583,2.64584 z"
       id="path969"
       inkscape:connector-curvature="0"
       sodipodi:nodetypes="cccsccccc" />
    <path
       style="fill:none;fill-rule:evenodd;stroke:#000000;stroke-width:0.5;stroke-linecap:butt;stroke-linejoin:miter;stroke-miterlimit:4;stroke-dasharray:none;stroke-opacity:1"
       d="m 157.42708,123.69791 h -37.04166 c 0,0 -7.9375,0 -13.22917,5.29167 l -38.36458,38.36458 h 14.552083 c 0,0 17.197917,1e-5 23.812497,-6.61458 l -6.61458,6.61458 h 13.22917 l 43.65625,-43.65625 z"
       id="path971"
       inkscape:connector-curvature="0"
       sodipodi:nodetypes="ccsccccccc" />
    <path
       style="fill:none;fill-rule:evenodd;stroke:#000000;stroke-width:0.5;stroke-linecap:butt;stroke-linejoin:miter;stroke-miterlimit:4;stroke-dasharray:none;stroke-opacity:1"
       d="m 166.6875,123.69791 -43.65625,43.65625 h 26.45833 l -3.96875,3.96875 c 0,0 -3.96875,3.96876 -9.26042,3.96876 H -89.958333 l -11.906247,11.90624 h 234.15625 c 0,0 10.58333,0 19.84375,-9.26041 l 54.23958,-54.23958 -13.22916,-1e-5 -33.07292,33.07292 h -13.22917 l 33.07292,-33.07292 z"
       id="path973"
       inkscape:connector-curvature="0"
       sodipodi:nodetypes="ccccscccccccccc" />
    <path
       style="fill:none;fill-rule:evenodd;stroke:#000000;stroke-width:0.5;stroke-linecap:butt;stroke-linejoin:miter;stroke-miterlimit:4;stroke-dasharray:none;stroke-opacity:1"
       d="m 238.125,101.20833 -66.14583,66.14584 13.22917,-1e-5 66.14583,-66.14583 z"
       id="path975"
       inkscape:connector-curvature="0"
       sodipodi:nodetypes="ccccc" />
    <path
       style="fill:none;fill-rule:evenodd;stroke:#000000;stroke-width:0.5;stroke-linecap:butt;stroke-linejoin:miter;stroke-miterlimit:4;stroke-dasharray:none;stroke-opacity:1"
       d="m 238.125,123.69792 -43.65625,43.65625 h 13.22917 l 43.65625,-43.65625 z"
       id="path977"
       inkscape:connector-curvature="0"
       sodipodi:nodetypes="cc" />
    <path
       style="fill:none;fill-rule:evenodd;stroke:#000000;stroke-width:0.5;stroke-linecap:butt;stroke-linejoin:miter;stroke-miterlimit:4;stroke-dasharray:none;stroke-opacity:1"
       d="m 305.59375,123.69792 h -34.39584 c 0,0 -10.58334,1e-5 -15.875,5.29167 l -38.36458,38.36458 h 31.75 l -2.64584,2.64584 c 0,0 -5.29167,5.29166 -10.58333,5.29166 h -71.43749 l -11.90625,11.90625 h 80.69791 c 0,0 9.26042,-1e-5 18.52084,-9.26042 z"
       id="path979"
       inkscape:connector-curvature="0"
       sodipodi:nodetypes="ccscccsccccc" />
    <path
       style="fill:none;fill-rule:evenodd;stroke:#000000;stroke-width:0.5;stroke-linecap:butt;stroke-linejoin:miter;stroke-miterlimit:4;stroke-dasharray:none;stroke-opacity:1"
       d="m 337.34376,101.20834 -66.14584,66.14583 h 13.22917 l 30.42708,-30.42708 h 9.26042 l -30.42708,30.42708 h 13.22916 l 43.65625,-43.65625 h -22.48958 l 22.48958,-22.48958 z"
       id="path981"
       inkscape:connector-curvature="0"
       sodipodi:nodetypes="ccccccccccc" />
    <path
       style="fill:none;fill-rule:evenodd;stroke:#000000;stroke-width:0.5;stroke-linecap:butt;stroke-linejoin:miter;stroke-miterlimit:4;stroke-dasharray:none;stroke-opacity:1"
       d="M 359.83333,101.20833 349.25,111.79166 h 22.48958 l -55.5625,55.56251 30.42708,-1e-5 9.26042,-9.26041 h -17.19792 l 21.16667,-21.16667 h 17.19792 l 13.22916,-13.22917 H 373.0625 l 11.90625,-11.90625 h 26.45833 l -63.5,63.5 -84.66666,1e-5 -11.90625,11.90625 170.65625,-1e-5 v -85.98958 z"
       id="path985"
       inkscape:connector-curvature="0"
       sodipodi:nodetypes="ccccccccccccccccccc" />
    <path
       style="fill:none;fill-rule:evenodd;stroke:#000000;stroke-width:0.5;stroke-linecap:butt;stroke-linejoin:miter;stroke-miterlimit:4;stroke-dasharray:none;stroke-opacity:1"
       d="m 260.61458,101.20834 -10.58333,10.58333 h 13.22917 l 10.58333,-10.58333 z"
       id="path987"
       inkscape:connector-curvature="0" />
    <path
       style="fill:none;fill-rule:evenodd;stroke:#000000;stroke-width:0.5;stroke-linecap:butt;stroke-linejoin:miter;stroke-miterlimit:4;stroke-dasharray:none;stroke-opacity:1"
       d="m 287.07291,101.20834 -10.58333,10.58333 h 14.55209 L 301.625,101.20834 Z"
       id="path987-7"
       inkscape:connector-curvature="0"
       sodipodi:nodetypes="ccccc" />
    <path
       style="fill:none;fill-rule:evenodd;stroke:#000000;stroke-width:0.5;stroke-linecap:butt;stroke-linejoin:miter;stroke-miterlimit:4;stroke-dasharray:none;stroke-opacity:1"
       d="m 314.85416,101.20834 -10.58333,10.58333 H 317.5 l 10.58333,-10.58333 z"
       id="path987-4"
       inkscape:connector-curvature="0" />
    <path
       style="fill:none;fill-rule:evenodd;stroke:#000000;stroke-width:0.5;stroke-linecap:butt;stroke-linejoin:miter;stroke-miterlimit:4;stroke-dasharray:none;stroke-opacity:1"
       d="M 130.96875,136.92708 H 119.0625 c 0,0 -6.61458,0 -10.58333,3.96875 l -14.552083,14.55208 h 13.229163 c 0,0 5.29167,0 9.26042,-3.96875 z"
       id="path1010"
       inkscape:connector-curvature="0"
       sodipodi:nodetypes="ccsccsc" />
    <path
       style="fill:none;fill-rule:evenodd;stroke:#000000;stroke-width:0.5;stroke-linecap:butt;stroke-linejoin:miter;stroke-miterlimit:4;stroke-dasharray:none;stroke-opacity:1"
       d="m 279.13541,136.92708 h -11.90625 c 0,0 -6.61458,0 -10.58333,3.96875 l -17.19791,17.19792 h 11.90625 c 0,0 6.42559,0.18898 10.39434,-3.77977 z"
       id="path1010-3"
       inkscape:connector-curvature="0"
       sodipodi:nodetypes="ccsccsc" />
    <path
       style="fill:#000000;fill-opacity:1;fill-rule:evenodd;stroke:none;stroke-width:0.26458332px;stroke-linecap:butt;stroke-linejoin:miter;stroke-opacity:1"
       d="m -111.125,201.75 v 22.48958 l 11.90625,-11.90625 h 13.22917 L -111.125,237.46875 V 249.375 l 37.04167,-37.04167 h 6.61458 l -43.65625,43.65625 v 31.75 l 75.40625,-75.40625 h 9.26042 L -55.5625,241.4375 h 41.01042 l -11.90625,11.90625 c 0,0 -5.29167,5.29167 -10.58334,5.29167 h -35.71875 l -9.26041,9.26041 h 55.5625 c 0,0 6.61458,0 14.55208,-7.9375 l 30.42708,-30.42708 h -46.30208 l 10.58333,-10.58333 c 0,0 6.61458,-6.61459 14.55208,-6.61459 h 47.625 l -55.5625,55.5625 31.75,1e-5 9.26041,-9.26041 -18.52082,-10e-6 21.16666,-21.16667 H 51.59374 L 64.82291,224.23958 H 46.30208 L 58.20833,212.33333 H 218.28125 L 228.86458,201.75 Z"
       id="path967-1"
       inkscape:connector-curvature="0"
       sodipodi:nodetypes="cccccccccccccccscccscccsccccccccccccc" />
    <path
       style="fill:#000000;fill-opacity:1;fill-rule:evenodd;stroke:none;stroke-width:0.26458332px;stroke-linecap:butt;stroke-linejoin:miter;stroke-opacity:1"
       d="M 43.65625,267.89583 H 30.42708 l 39.687497,-39.6875 c 0,0 3.96875,-3.96875 7.9375,-3.96875 h 25.135413 l -13.229163,13.22917 h -11.90625 c 0,0 -3.96875,0 -6.61459,2.64584 z"
       id="path969-4"
       inkscape:connector-curvature="0"
       sodipodi:nodetypes="cccsccccc" />
    <path
       style="fill:#000000;fill-opacity:1;fill-rule:evenodd;stroke:none;stroke-width:0.26458332px;stroke-linecap:butt;stroke-linejoin:miter;stroke-opacity:1"
       d="m 166.6875,224.23958 -43.65626,43.65625 h 26.45834 l -3.96876,3.96875 c 0,0 -3.96875,3.96876 -9.26042,3.96876 H -89.95834 l -11.90624,11.90624 h 234.15624 c 0,0 10.58333,0 19.84376,-9.26041 l 54.23958,-54.23958 -13.22917,-1e-5 -33.07291,33.07292 h -13.22918 l 33.07293,-33.07292 z"
       id="path973-6"
       inkscape:connector-curvature="0"
       sodipodi:nodetypes="ccccscccccccccc" />
    <path
       style="fill:#000000;fill-opacity:1;fill-rule:evenodd;stroke:none;stroke-width:0.26458332px;stroke-linecap:butt;stroke-linejoin:miter;stroke-opacity:1"
       d="m 238.125,201.75 -66.14583,66.14584 13.22916,-1e-5 66.14584,-66.14583 z"
       id="path975-7"
       inkscape:connector-curvature="0"
       sodipodi:nodetypes="ccccc" />
    <path
       style="fill:#000000;fill-opacity:1;fill-rule:evenodd;stroke:none;stroke-width:0.26458332px;stroke-linecap:butt;stroke-linejoin:miter;stroke-opacity:1"
       d="m 238.125,224.23959 -43.65625,43.65625 h 13.22917 l 43.65625,-43.65625 z"
       id="path977-3"
       inkscape:connector-curvature="0"
       sodipodi:nodetypes="cc" />
    <path
       style="fill:#000000;fill-opacity:1;fill-rule:evenodd;stroke:none;stroke-width:0.26458332px;stroke-linecap:butt;stroke-linejoin:miter;stroke-opacity:1"
       d="m 337.34378,201.75001 -66.14586,66.14583 h 13.22916 l 30.42709,-30.42708 h 9.26041 l -30.42705,30.42708 h 13.22914 l 43.65624,-43.65625 h -22.48958 l 22.48958,-22.48958 z"
       id="path981-2"
       inkscape:connector-curvature="0"
       sodipodi:nodetypes="ccccccccccc" />
    <path
       style="fill:#000000;fill-opacity:1;fill-rule:evenodd;stroke:none;stroke-width:0.26458332px;stroke-linecap:butt;stroke-linejoin:miter;stroke-opacity:1"
       d="m 359.83332,201.75 -10.58333,10.58333 h 22.48958 l -55.56249,55.56251 30.42709,-1e-5 9.2604,-9.26041 h -17.1979 l 21.16665,-21.16667 h 17.19792 l 13.22917,-13.22917 h -17.19792 l 11.90625,-11.90625 h 26.45833 l -63.49999,63.5 -84.66666,1e-5 -11.90625,11.90625 170.65624,-1e-5 V 201.75 Z"
       id="path985-1"
       inkscape:connector-curvature="0"
       sodipodi:nodetypes="ccccccccccccccccccc" />
    <path
       style="fill:#782121;fill-opacity:1;fill-rule:evenodd;stroke:none;stroke-width:0.26458332px;stroke-linecap:butt;stroke-linejoin:miter;stroke-opacity:1"
       d="m 260.61458,201.75001 -10.58333,10.58333 h 13.22917 l 10.58333,-10.58333 z"
       id="path987-3"
       inkscape:connector-curvature="0" />
    <path
       style="fill:#782121;fill-opacity:1;fill-rule:evenodd;stroke:none;stroke-width:0.26458332px;stroke-linecap:butt;stroke-linejoin:miter;stroke-opacity:1"
       d="m 287.07292,201.75001 -10.58334,10.58333 h 14.55209 L 301.625,201.75001 Z"
       id="path987-7-6"
       inkscape:connector-curvature="0"
       sodipodi:nodetypes="ccccc" />
    <path
       style="fill:#782121;fill-opacity:1;fill-rule:evenodd;stroke:none;stroke-width:0.26458332px;stroke-linecap:butt;stroke-linejoin:miter;stroke-opacity:1"
       d="m 314.85417,201.75001 -10.58334,10.58333 H 317.5 l 10.58333,-10.58333 z"
       id="path987-4-3"
       inkscape:connector-curvature="0" />
    <path
       style="fill:#000000;fill-opacity:1;fill-rule:evenodd;stroke:none;stroke-width:0.26458332px;stroke-linecap:butt;stroke-linejoin:miter;stroke-opacity:1"
       d="m 68.791675,267.89583 h 15.875 c 0,0 15.875005,0 22.489585,-6.61458 l 9.26041,-9.26042 c 0,0 -3.96875,3.96875 -9.26041,3.96875 H 93.927092 L 108.47918,241.4375 c 0,0 3.96874,-3.96875 10.58332,-3.96875 h 11.90625 l -30.42707,30.42708 h 13.22915 l 43.65625,-43.65625 h -37.04166 c 0,0 -7.9375,0 -13.22916,5.29167 z"
       id="path1378"
       inkscape:connector-curvature="0" />
    <path
       style="fill:#000000;fill-opacity:1;fill-rule:evenodd;stroke:none;stroke-width:0.26458332px;stroke-linecap:butt;stroke-linejoin:miter;stroke-opacity:1"
       d="m 239.44792,258.63542 h 11.90625 c 0,0 6.61458,0 10.58333,-3.96875 l -13.22917,13.22916 h -31.75 l 38.36459,-38.36458 c 0,0 5.29167,-5.29167 15.875,-5.29167 h 34.39583 l -55.5625,55.5625 c 0,0 -7.9375,7.9375 -17.19792,7.9375 h -80.69791 l 11.90625,-11.90625 h 71.4375 c 0,0 5.29166,0 10.58333,-5.29166 l 33.07292,-33.07292 h -11.90625 c 0,0 -6.61458,0 -10.58333,3.96875 z"
       id="path1416"
       inkscape:connector-curvature="0"
       sodipodi:nodetypes="ccccccsccscccscccc" />
  </g>
</svg>
